<svg width="840" height="380" viewBox="0 0 840 380" fill="none" xmlns="http://www.w3.org/2000/svg">
<path d="M712 128L128 128L128 380L0 380L3.32207e-05 -7.34351e-05L840 0L840 380L712 380L712 128Z" fill="#D9D9D9"/>
<path d="M553 323L592 323L592 190L553 190L553 176L607 176L607 337L553 337L553 323Z" fill="#D9D9D9"/>
<path d="M287 190L248 190L248 323L287 323L287 337L233 337L233 176L287 176L287 190Z" fill="#D9D9D9"/>
<rect x="462" y="299" width="84" height="84" transform="rotate(-180 462 299)" fill="#D9D9D9"/>
</svg>
